<svg version="1.1"
    xmlns="http://www.w3.org/2000/svg" viewBox="0 0 500 450">
    <defs>
        <clipPath id="shirt-clip-path">
            <path d="m 498.60096,182.87058 c -1.74912,1.67773 -43.19059,41.34134 -71.33657,59.55549 -1.87801,1.21401 -4.34864,0.88534 -5.84047,-0.77851 -0.25728,-0.28553 -23.15541,-25.83301 -44.16168,-51.04464 v 245.84031 c 0,2.3063 -1.73524,4.24849 -4.02716,4.50526 -0.6142,0.0714 -62.04718,6.84752 -123.23778,6.84752 -61.19059,0 -122.61691,-6.77614 -123.23059,-6.84752 -2.2991,-0.25677 -4.03384,-2.19896 -4.03384,-4.50526 V 190.60344 c -20.99906,25.21162 -43.897199,50.75859 -44.154481,51.04463 -1.492341,1.66386 -3.969647,1.99201 -5.840465,0.77852 C 44.591945,224.21243 3.1432811,184.54883 1.3941713,182.8711 -0.04835633,181.48608 -0.41245473,179.32255 0.49445307,177.5375 2.8079409,172.98909 57.479688,65.852268 82.712369,46.788205 108.24546,27.495615 190.52757,1.3128894 194.01911,0.21340486 c 1.77068,-0.5638645 3.69851,0.014379 4.87655,1.44252774 0.036,0.042623 3.6415,4.412317 9.71049,10.0530164 11.49555,10.674397 26.19711,16.557999 41.39115,16.557999 15.19404,0 29.89561,-5.883602 41.39115,-16.557999 6.06899,-5.6406994 9.68225,-10.0103927 9.71768,-10.0530164 1.17086,-1.42814864 3.10587,-1.99920274 4.86936,-1.44252774 3.49154,1.09948454 85.78084,27.28221014 111.31394,46.57480014 25.22601,19.064063 79.90442,126.200885 82.21792,130.749295 0.90742,1.78454 0.53613,3.94808 -0.90639,5.33308 z"></path>
        </clipPath>
    </defs>
    <g clip-path="url(#shirt-clip-path)">
        <rect width="500" fill="#fff" height="500"></rect>
        <path d="M 250,250 L 252.6253422014092,250.28984047740383 L 252.7233656688634,250.60874434960388 L 252.78933122697202,250.95500153459722 L 252.81846035326765,251.32626677026062 L 252.80600684583007,251.7195232066507 L 252.7473363050713,252.13105248180653 L 252.63801306978715,252.5564125120621 L 252.47389408681764,252.99042424786873 L 252.25122902251874,253.42716864848677 L 251.96676574425393,253.85999511154043 L 251.61786011310824,254.28154255432656 L 251.20258883717958,254.68377428102352 L 250.71986394061102,255.0580276818139 L 250.16954720981607,255.39507969486982 L 249.5525627882674,255.68522881885733 L 248.87100590822,255.91839429110286 L 248.1282455755644,256.08423284418564 L 247.329018866664,256.17227322123176 L 246.47951435775062,256.172068367802 L 245.5874420926619,256.0733649266923 L 244.66208740796128,255.86628934246758 L 243.71434588043095,255.54154953697633 L 242.75673664523183,255.090650747925 L 241.8033913582926,254.5061237329821 L 240.87001614819275,253.78176313566593 L 239.97382402519847,252.91287339100015 L 239.1334353921336,251.89651912387336 L 238.36874453694386,250.73177656720037 L 237.7007502831508,249.4199821070622 L 237.15134933427092,247.96497365538303 L 236.74309127333999,246.37332016541907 L 236.49889466972607,244.65453425001635 L 236.4417243022728,242.8212625463898 L 236.59423012925075,240.8894482036793 L 236.97834931919988,238.87845966067644 L 237.61487339884073,236.81117974103597 L 238.52298336977282,234.71404903222168 L 239.7197564881846,232.61705754253714 L 241.2196492832888,230.55367875778506 L 243.03396230113444,228.56074045485926 L 245.17029298972346,226.6782269827698 L 247.63198407627868,224.9490082002399 L 250.41757571381086,223.41849087004096 L 253.52027057603703,222.13418905928694 L 256.92742193998004,221.14521098608182 L 260.6200555956713,220.5016607885053 L 264.572437142523,220.25395487219328 L 268.7516968513471,220.45205381570887 L 273.1175247680925,221.14461227397533 L 277.62194908799177,222.37805091200823 L 282.2092110145477,224.19555611384243 L 286.8157493142762,226.6360150316126 L 291.3703075634259,229.73289545065248 L 295.79417663588674,233.51308192830066 L 300.00158428232015,237.99568169346074 L 303.9002426810278,243.19081584401138 L 307.39206358528105,249.09841341958673 L 310.3740491365149,255.70702792438613 L 312.73936454795404,262.9926977916164 L 314.3785966826621,270.91787407803133 L 315.18120005177855,279.4304403111642 L 315.0371289457753,288.4628508382863 L 313.83865129222227,297.93141519795125 L 311.4823364219612,307.7357569039209 L 307.871205242204,317.7584755482443 L 302.91702738708557,327.86504124611804 L 296.54274577783997,337.90395011142664 L 288.6850047176184,347.707168621613 L 279.2967532191257,357.0908933593001 L 268.3498907734323,365.856650664879 L 255.83791827985,373.7927581626045 L 241.7785524413933,380.67616690176277 L 226.21625766704338,386.2746989601019 L 209.2246454964752,390.3496907728233 L 190.90868786696043,392.6590471700059 L 171.40668727310316,392.96070513167433 L 150.8919441296697,391.01649961755663 L 129.57405954121276,386.5964165251827 L 107.69981031673683,379.4832099161816 L 85.55353255124308,369.4773521817712 L 63.456950535521,356.40227686508615 L 41.76838925516296,340.10986450671567 L 20.881311398697022,320.4861122335586 L 1.222123705339584,297.4569179894753 L -16.752797271806628,270.9939004455328 L -32.560903259732925,241.12016588071018 L -45.698131374272634,207.91592385946348 L -55.644445782020796,171.52384453439734 L -61.870278309161165,132.15404206820608 L -63.84386972128624,90.08856120919049 L -61.03949922856316,45.68523768965622 L -52.94657415250299,-0.6192019248356928 L -39.079534704981086,-48.306938790793026 L -18.988510589092016,-96.77789829089238 L 7.729353219989093,-145.3497636897423 L 41.418004438022166,-193.2593035421968 L 82.35014909973859,-239.6651443712447 L 130.71462023366178,-283.65211235943036 L 186.60361660084925,-324.2372571468625  A 577.7261712296267 577.7261712296267 0 0 1 715.605860789105,-92.0215071051536 L 715.605860789105,-92.0215071051536 L 652.5135962033254,-120.13022535743812 L 590.2375289231421,-140.02160200592192 L 529.5828195503514,-152.2669586998241 L 471.2476153454862,-157.48741654764706 L 415.8242140963433,-156.33983264173924 L 363.8016197655061,-149.50369016409536 L 315.56930846683827,-137.66903016795163 L 271.4220249146557,-121.52548906749792 L 231.56543348791843,-101.75248339605241 L 196.1224541476654,-79.01056266695355 L 165.14012133353867,-53.93393230564692 L 138.59681334536708,-27.124131691976743 L 116.40971029883048,0.855162601149118 L 98.44235025374394,29.482251254821506 L 84.51216528846959,58.28049822401914 L 74.39789189108578,86.82045130627475 L 67.84676283319203,114.72106747737618 L 64.58140048209069,141.65011869688703 L 64.30634410930756,167.32385771765126 L 66.71415600740207,191.50602572904052 L 71.49106299387768,214.00628455064927 L 78.32210104327223,234.67815570538474 L 86.89574124958529,253.41654717676957 L 96.90798500457257,270.154946134835 L 108.06592512568218,284.8623525380429 L 120.09077764099658,297.5400244226471 L 132.7203960145948,308.21810100924637 L 145.711285766566,316.9521646168699 L 158.84014271355164,323.81979689890153 L 171.90494244643878,328.9171792158165 L 184.72561220064256,332.35578114178486 L 197.1443189994245,334.2591752612036 L 209.02540990768148,334.76001063303204 L 220.25504147461578,333.997171661494 L 230.7405360254623,332.1131436774001 L 240.40950244534582,329.2516013613764 L 249.20875854496018,325.55523127538873 L 257.1030910718595,321.16379524957784 L 264.0738879965919,316.21243722619363 L 270.1176759227433,310.8302324116292 L 275.2445934056319,305.1389742437449 L 279.4768286749896,299.2521917502586 L 282.84704779864654,293.27438735392207 L 285.3968367497377,287.3004830646883 L 287.17517819814776,281.41546127622007 L 288.2369811826031,275.6941850376286 L 288.6416791733994,270.201381681329 L 288.4519094432163,264.99177303137304 L 287.73228415623714,260.1103350682454 L 286.54826119083333,255.59266985877173 L 284.96512045092516,251.46547274518568 L 283.0470493140604,247.74707819657345 L 280.8563389244407,244.44806832970704 L 278.4526912768833,241.5719288757973 L 275.8926354597304,239.11573827668641 L 273.22905003437796,237.07087661118408 L 270.51078732672727,235.42374215361122 L 267.7823943890775,234.15646452764963 L 265.0839245549871,233.24760461649194 L 262.4508328475555,232.6728326040837 L 259.9139480047782,232.4055767329463 L 257.49951354398576,232.4176365546776 L 255.22929008963007,232.67975560482765 L 253.12071112266756,233.1621495415584 L 251.18708436273303,233.83498683648278 L 249.43783115306167,234.66882008744994 L 247.87875646940853,235.63496692982145 L 246.51234250480982,236.70584034977037 L 245.33805917894435,237.8552289468183 L 244.35268537150904,239.05852835125114 L 243.55063517138223,240.29292557468705 L 242.92428395602946,241.5375385596595 L 242.4642896579854,242.77351359850874 L 242.1599051275142,243.98408361602617 L 241.99927805378783,245.15459055789339 L 241.9697354531186,246.27247530243235 L 242.05805026486408,247.32723862153907 L 242.2506881074538,248.31037676334742 L 242.534032733362,249.21529521992144 L 242.8945891784644,250.03720418405467 L 243.31916402464688,250.77299909611799 L 243.79502258217778,251.4211295408857 L 244.31002314840214,251.98145958134742 L 244.85272881067587,252.45512241746977 L 245.41249753370917,252.8443720382764 L 245.97955150480973,253.15243430074446 L 246.54502690563123,253.38335962381686 L 247.1010054371232,253.54187923488456 L 247.6405290470492,253.63326665358713 L 248.15759939861624,253.6632058474814 L 248.64716367666153,253.63766724939055 L 249.1050883568954,253.5627925899821 L 249.5281225664933,253.4447892738343 L 249.91385264355864,253.28983481500723 L 250.260649461393,253.10399165061938 L 250.5676100238717,252.89313246942558 L 250.8344947632645,252.66287602783206 L 251.06166188422787,252.41853327874966 L 250,250 Z" style="color: rgb(255, 217, 41);" fill="#ffd929" stroke="currentColor" stroke-width="1"></path>
        <path d="M 250,250 L 251.06166188422787,252.41853327874966 L 250.8344947632645,252.66287602783206 L 250.5676100238717,252.89313246942558 L 250.260649461393,253.10399165061938 L 249.91385264355864,253.28983481500723 L 249.5281225664933,253.4447892738343 L 249.1050883568954,253.5627925899821 L 248.64716367666153,253.63766724939055 L 248.15759939861624,253.6632058474814 L 247.6405290470492,253.63326665358713 L 247.1010054371232,253.54187923488456 L 246.54502690563123,253.38335962381686 L 245.97955150480973,253.15243430074446 L 245.41249753370917,252.8443720382764 L 244.85272881067587,252.45512241746977 L 244.31002314840214,251.98145958134742 L 243.79502258217778,251.4211295408857 L 243.31916402464688,250.77299909611799 L 242.8945891784644,250.03720418405467 L 242.534032733362,249.21529521992144 L 242.2506881074538,248.31037676334742 L 242.05805026486408,247.32723862153907 L 241.9697354531186,246.27247530243235 L 241.99927805378783,245.15459055789339 L 242.1599051275142,243.98408361602617 L 242.4642896579854,242.77351359850874 L 242.92428395602946,241.5375385596595 L 243.55063517138223,240.29292557468705 L 244.35268537150904,239.05852835125114 L 245.33805917894435,237.8552289468183 L 246.51234250480982,236.70584034977037 L 247.87875646940853,235.63496692982145 L 249.43783115306167,234.66882008744994 L 251.18708436273303,233.83498683648278 L 253.12071112266756,233.1621495415584 L 255.22929008963007,232.67975560482765 L 257.49951354398576,232.4176365546776 L 259.9139480047782,232.4055767329463 L 262.4508328475555,232.6728326040837 L 265.0839245549871,233.24760461649194 L 267.7823943890775,234.15646452764963 L 270.51078732672727,235.42374215361122 L 273.22905003437796,237.07087661118408 L 275.8926354597304,239.11573827668641 L 278.4526912768833,241.5719288757973 L 280.8563389244407,244.44806832970704 L 283.0470493140604,247.74707819657345 L 284.96512045092516,251.46547274518568 L 286.54826119083333,255.59266985877173 L 287.73228415623714,260.1103350682454 L 288.4519094432163,264.99177303137304 L 288.6416791733994,270.201381681329 L 288.2369811826031,275.6941850376286 L 287.17517819814776,281.41546127622007 L 285.3968367497377,287.3004830646883 L 282.84704779864654,293.27438735392207 L 279.4768286749896,299.2521917502586 L 275.2445934056319,305.1389742437449 L 270.1176759227433,310.8302324116292 L 264.0738879965919,316.21243722619363 L 257.1030910718595,321.16379524957784 L 249.20875854496018,325.55523127538873 L 240.40950244534582,329.2516013613764 L 230.7405360254623,332.1131436774001 L 220.25504147461578,333.997171661494 L 209.02540990768148,334.76001063303204 L 197.1443189994245,334.2591752612036 L 184.72561220064256,332.35578114178486 L 171.90494244643878,328.9171792158165 L 158.84014271355164,323.81979689890153 L 145.711285766566,316.9521646168699 L 132.7203960145948,308.21810100924637 L 120.09077764099658,297.5400244226471 L 108.06592512568218,284.8623525380429 L 96.90798500457257,270.154946134835 L 86.89574124958529,253.41654717676957 L 78.32210104327223,234.67815570538474 L 71.49106299387768,214.00628455064927 L 66.71415600740207,191.50602572904052 L 64.30634410930756,167.32385771765126 L 64.58140048209069,141.65011869688703 L 67.84676283319203,114.72106747737618 L 74.39789189108578,86.82045130627475 L 84.51216528846959,58.28049822401914 L 98.44235025374394,29.482251254821506 L 116.40971029883048,0.855162601149118 L 138.59681334536708,-27.124131691976743 L 165.14012133353867,-53.93393230564692 L 196.1224541476654,-79.01056266695355 L 231.56543348791843,-101.75248339605241 L 271.4220249146557,-121.52548906749792 L 315.56930846683827,-137.66903016795163 L 363.8016197655061,-149.50369016409536 L 415.8242140963433,-156.33983264173924 L 471.2476153454862,-157.48741654764706 L 529.5828195503514,-152.2669586998241 L 590.2375289231421,-140.02160200592192 L 652.5135962033254,-120.13022535743812 L 715.605860789105,-92.0215071051536  A 577.7261712296267 577.7261712296267 0 0 1 779.0022441882556,482.2157500417083 L 779.0022441882556,482.2157500417083 L 771.7989759696635,413.5218870019917 L 757.8873798234034,349.64354236532216 L 738.1648151123289,290.99234484237223 L 713.5182621254969,237.8623471420948 L 684.812724685435,190.43806564915275 L 652.8811544704869,148.80324862669738 L 618.515882619341,112.95017175688378 L 582.4615241432185,82.78927324284567 L 545.4093032092044,58.1589553947569 L 507.9927324568262,38.83539526484023 L 470.7845671155592,24.542223159955654 L 434.2949447196394,14.959944448559725 L 398.97061355856306,9.734996720438886 L 365.1951475255503,8.488350809288704 L 333.2900415831297,10.823580234543897 L 303.51658049238847,16.334339072716233 L 276.07837357802885,24.61120297066057 L 251.12444994656948,35.247841831801 L 228.7528115580643,47.84650553588014 L 209.01434569066504,62.02281581285905 L 191.91700345266477,77.4098680254667 L 177.4301569136024,93.66165608782819 L 165.489053976482,110.45584204509541 L 155.99929713761207,127.49589896482922 L 148.84127962920692,144.51266176521972 L 143.87451997395314,161.26532546254532 L 140.94184357320148,177.5419341074837 L 139.873367486716,193.15940645426545 L 140.49025194011932,207.96314623402264 L 142.60818922731303,221.82628585651634 L 146.04060748302416,234.64861252017198 L 150.6015732215846,246.35522514977706 L 156.10838252059588,256.89496938691394 L 162.38383623241174,266.23869611324966 L 169.2581996035011,274.37738677347915 L 176.57085115312353,281.3201861634251 L 184.17162959918488,287.09238043710246 L 191.92189102008098,291.73335493841375 L 199.69529131392986,295.2945631481623 L 207.37831137478923,297.83753462001283 L 214.87054426911703,299.4319463193588 L 222.08476508970853,300.15377833067186 L 228.94680511761877,300.0835715099107 L 235.39525246741752,299.3048013712276 L 241.38100156226105,297.9023793479194 L 246.8666736191772,295.9612895869761 L 251.82592985912314,293.56536664971645 L 256.2426984286687,290.7962169175306 L 260.1103350682454,287.73228415623714 L 263.4307364227408,284.4480575847964 L 266.21342359957805,281.01341892947687 L 268.47461217153744,277.4931233243802 L 270.23628332876945,273.9464075412018 L 271.52526933690325,270.42671788971546 L 272.3723648836933,266.9815492173995 L 272.81147432056713,263.6523857411432 L 272.8788032504486,260.47473395337136 L 272.61210139935406,257.47823754487985 L 272.0499622538527,254.68686416163268 L 271.2311835642667,252.11915384629862 L 270.1941915165936,249.78851919040915 L 268.97653017421294,247.70358752245596 L 267.6144166907893,245.86857586379168 L 266.1423618034677,244.28368988088195 L 264.5928542334823,242.94553863280345 L 262.99610685078886,241.84755754106016 L 261.37986179968243,240.98043267980512 L 259.7692512314698,240.3325201843513 L 258.18670984467343,239.89025529143527 L 256.65193508835824,239.63854624418892 L 255.18189063443836,239.56114900748668 L 253.79084856389585,239.64101943578612 L 252.4904656327869,239.8606402075086 L 251.28988897932143,240.20232048036027 L 250.19588669549523,240.64846682491128 L 249.21299880788678,241.18182455450736 L 248.34370438443312,241.78568908456273 L 247.58860069949253,242.44408742087984 L 246.94659064070012,243.14193029322917 L 246.41507482071376,243.86513581625266 L 245.99014515798285,244.6007258748862 L 245.6667770066134,245.33689669670002 L 245.43901724018212,246.06306529024457 L 245.30016602240846,246.76989359861244 L 245.2429503238931,247.44929234340657 L 245.25968756419874,248.09440661893055 L 245.34243806845166,248.69958534279334 L 245.48314532401497,249.260336680558 L 245.67376330279527,249.7732715420467 L 245.9063703760975,250.23603719899464 L 246.17326958984387,250.64724300152182 L 246.46707528710823,251.00638007792 L 246.780786261422,251.31373679202773 L 247.10784579772857,251.57031160835652 L 247.44218910812532,251.77772488035873 L 247.77827879689968,251.9381309348284 L 248.1111290944011,252.05413167822817 L 248.43631968281866,252.12869280134584 L 250,250 Z" style="color: rgb(220, 84, 53);" fill="#dc5435" stroke="currentColor" stroke-width="1"></path>
        <path d="M 250,250 L 248.43631968281866,252.12869280134584 L 248.1111290944011,252.05413167822817 L 247.77827879689968,251.9381309348284 L 247.44218910812532,251.77772488035873 L 247.10784579772857,251.57031160835652 L 246.780786261422,251.31373679202773 L 246.46707528710823,251.00638007792 L 246.17326958984387,250.64724300152182 L 245.9063703760975,250.23603719899464 L 245.67376330279527,249.7732715420467 L 245.48314532401497,249.260336680558 L 245.34243806845166,248.69958534279334 L 245.25968756419874,248.09440661893055 L 245.2429503238931,247.44929234340657 L 245.30016602240846,246.76989359861244 L 245.43901724018212,246.06306529024457 L 245.6667770066134,245.33689669670002 L 245.99014515798285,244.6007258748862 L 246.41507482071376,243.86513581625266 L 246.94659064070012,243.14193029322917 L 247.58860069949253,242.44408742087984 L 248.34370438443312,241.78568908456273 L 249.21299880788678,241.18182455450736 L 250.19588669549523,240.64846682491128 L 251.28988897932143,240.20232048036027 L 252.4904656327869,239.8606402075086 L 253.79084856389585,239.64101943578612 L 255.18189063443836,239.56114900748668 L 256.65193508835824,239.63854624418892 L 258.18670984467343,239.89025529143527 L 259.7692512314698,240.3325201843513 L 261.37986179968243,240.98043267980512 L 262.99610685078886,241.84755754106016 L 264.5928542334823,242.94553863280345 L 266.1423618034677,244.28368988088195 L 267.6144166907893,245.86857586379168 L 268.97653017421294,247.70358752245596 L 270.1941915165936,249.78851919040915 L 271.2311835642667,252.11915384629862 L 272.0499622538527,254.68686416163268 L 272.61210139935406,257.47823754487985 L 272.8788032504486,260.47473395337136 L 272.81147432056713,263.6523857411432 L 272.3723648836933,266.9815492173995 L 271.52526933690325,270.42671788971546 L 270.23628332876945,273.9464075412018 L 268.47461217153744,277.4931233243802 L 266.21342359957805,281.01341892947687 L 263.4307364227408,284.4480575847964 L 260.1103350682454,287.73228415623714 L 256.2426984286687,290.7962169175306 L 251.82592985912314,293.56536664971645 L 246.8666736191772,295.9612895869761 L 241.38100156226105,297.9023793479194 L 235.39525246741752,299.3048013712276 L 228.94680511761877,300.0835715099107 L 222.08476508970853,300.15377833067186 L 214.87054426911703,299.4319463193588 L 207.37831137478923,297.83753462001283 L 199.69529131392986,295.2945631481623 L 191.92189102008098,291.73335493841375 L 184.17162959918488,287.09238043710246 L 176.57085115312353,281.3201861634251 L 169.2581996035011,274.37738677347915 L 162.38383623241174,266.23869611324966 L 156.10838252059588,256.89496938691394 L 150.6015732215846,246.35522514977706 L 146.04060748302416,234.64861252017198 L 142.60818922731303,221.82628585651634 L 140.49025194011932,207.96314623402264 L 139.873367486716,193.15940645426545 L 140.94184357320148,177.5419341074837 L 143.87451997395314,161.26532546254532 L 148.84127962920692,144.51266176521972 L 155.99929713761207,127.49589896482922 L 165.489053976482,110.45584204509541 L 177.4301569136024,93.66165608782819 L 191.91700345266477,77.4098680254667 L 209.01434569066504,62.02281581285905 L 228.7528115580643,47.84650553588014 L 251.12444994656948,35.247841831801 L 276.07837357802885,24.61120297066057 L 303.51658049238847,16.334339072716233 L 333.2900415831297,10.823580234543897 L 365.1951475255503,8.488350809288704 L 398.97061355856306,9.734996720438886 L 434.2949447196394,14.959944448559725 L 470.7845671155592,24.542223159955654 L 507.9927324568262,38.83539526484023 L 545.4093032092044,58.1589553947569 L 582.4615241432185,82.78927324284567 L 618.515882619341,112.95017175688378 L 652.8811544704869,148.80324862669738 L 684.812724685435,190.43806564915275 L 713.5182621254969,237.8623471420948 L 738.1648151123289,290.99234484237223 L 757.8873798234034,349.64354236532216 L 771.7989759696635,413.5218870019917 L 779.0022441882556,482.2157500417083  A 577.7261712296267 577.7261712296267 0 0 1 313.3963833991508,824.2372571468625 L 313.3963833991508,824.2372571468625 L 369.2853797663383,783.6521123594304 L 417.64985090026147,739.6651443712447 L 458.5819955619779,693.2593035421967 L 492.27064678001096,645.3497636897423 L 518.9885105890921,596.7778982908924 L 539.0795347049811,548.306938790793 L 552.946574152503,500.61920192483564 L 561.0394992285633,454.3147623103437 L 563.8438697212862,409.9114387908095 L 561.8702783091612,367.84595793179386 L 555.6444457820209,328.47615546560263 L 545.6981313742726,292.08407614053647 L 532.5609032597329,258.8798341192898 L 516.7527972718066,229.00609955446714 L 498.7778762946604,202.5430820105247 L 479.11868860130295,179.5138877664414 L 458.23161074483704,159.89013549328428 L 436.543049464479,143.5977231349138 L 414.44646744875695,130.52264781822873 L 392.30018968326317,120.51679008381839 L 370.42594045878724,113.40358347481728 L 349.1080558703303,108.98350038244331 L 328.5933127268968,107.0392948683257 L 309.09131213303954,107.34095282999408 L 290.7753545035248,109.65030922717668 L 273.7837423329566,113.72530103989808 L 258.2214475586067,119.32383309823723 L 244.16208172014998,126.20724183739546 L 231.65010922656768,134.143349335121 L 220.7032467808742,142.90910664069995 L 211.31499528238157,152.292831378387 L 203.45725422216003,162.09604988857336 L 197.08297261291435,172.13495875388202 L 192.12879475779607,182.2415244517557 L 188.51766357803876,192.26424309607913 L 186.1613487077778,202.0685848020487 L 184.9628710542247,211.5371491617138 L 184.81879994822145,220.56955968883582 L 185.62140331733792,229.08212592196867 L 187.26063545204596,237.0073022083836 L 189.62595086348512,244.2929720756139 L 192.60793641471895,250.90158658041327 L 196.09975731897217,256.80918415598865 L 199.99841571767982,262.00431830653923 L 204.20582336411323,266.48691807169934 L 208.6296924365741,270.26710454934755 L 213.1842506857238,273.36398496838746 L 217.7907889854523,275.80444388615757 L 222.37805091200826,277.6219490879918 L 226.88247523190748,278.8553877260247 L 231.24830314865292,279.54794618429116 L 235.42756285747703,279.7460451278067 L 239.3799444043287,279.49833921149474 L 243.07257806002,278.85478901391815 L 246.47972942396297,277.86581094071306 L 249.58242428618917,276.58150912995904 L 252.36801592372132,275.05099179976014 L 254.82970701027654,273.3217730172302 L 256.9660376988656,271.43925954514077 L 258.7803507167112,269.44632124221494 L 260.2802435118154,267.38294245746283 L 261.4770166302272,265.2859509677783 L 262.38512660115924,263.18882025896403 L 263.0216506808001,261.1215403393236 L 263.4057698707492,259.1105517963207 L 263.5582756977272,257.1787374536102 L 263.50110533027396,255.34546574998365 L 263.25690872666,253.62667983458093 L 262.84865066572905,252.03502634461697 L 262.2992497168492,250.5800178929378 L 261.6312554630561,249.26822343279963 L 260.8665646078664,248.1034808761266 L 260.0261759748015,247.08712660899985 L 259.12998385180725,246.21823686433407 L 258.19660864170737,245.4938762670179 L 257.2432633547682,244.909349252075 L 256.2856541195691,244.45845046302367 L 255.33791259203872,244.13371065753242 L 254.4125579073381,243.92663507330772 L 253.52048564224935,243.82793163219796 L 252.67098113333597,243.8277267787682 L 251.8717544244356,243.91576715581436 L 251.12899409178,244.08160570889714 L 250.4474372117326,244.31477118114267 L 249.83045279018393,244.60492030513018 L 249.28013605938898,244.9419723181861 L 248.79741116282042,245.31622571897648 L 248.38213988689176,245.71845744567344 L 248.03323425574607,246.14000488845957 L 247.74877097748126,246.57283135151323 L 247.52610591318236,247.00957575213127 L 247.36198693021285,247.4435874879379 L 247.2526636949287,247.86894751819347 L 247.19399315416993,248.2804767933493 L 247.18153964673235,248.67373322973938 L 247.21066877302798,249.04499846540278 L 247.2766343311366,249.39125565039612 L 247.3746577985908,249.71015952259617 L 250,250 Z" style="color: rgb(235, 16, 7);" fill="#eb1007" stroke="currentColor" stroke-width="1"></path>
        <path d="M 250,250 L 247.3746577985908,249.71015952259617 L 247.2766343311366,249.39125565039612 L 247.21066877302798,249.04499846540278 L 247.18153964673235,248.67373322973938 L 247.19399315416993,248.2804767933493 L 247.2526636949287,247.86894751819347 L 247.36198693021285,247.4435874879379 L 247.52610591318236,247.00957575213127 L 247.74877097748126,246.57283135151323 L 248.03323425574607,246.14000488845957 L 248.38213988689176,245.71845744567344 L 248.79741116282042,245.31622571897648 L 249.28013605938898,244.9419723181861 L 249.83045279018393,244.60492030513018 L 250.4474372117326,244.31477118114267 L 251.12899409178,244.08160570889714 L 251.8717544244356,243.91576715581436 L 252.67098113333597,243.8277267787682 L 253.52048564224935,243.82793163219796 L 254.4125579073381,243.92663507330772 L 255.33791259203872,244.13371065753242 L 256.2856541195691,244.45845046302367 L 257.2432633547682,244.909349252075 L 258.19660864170737,245.4938762670179 L 259.12998385180725,246.21823686433407 L 260.0261759748015,247.08712660899985 L 260.8665646078664,248.1034808761266 L 261.6312554630561,249.26822343279963 L 262.2992497168492,250.5800178929378 L 262.84865066572905,252.03502634461697 L 263.25690872666,253.62667983458093 L 263.50110533027396,255.34546574998365 L 263.5582756977272,257.1787374536102 L 263.4057698707492,259.1105517963207 L 263.0216506808001,261.1215403393236 L 262.38512660115924,263.18882025896403 L 261.4770166302272,265.2859509677783 L 260.2802435118154,267.38294245746283 L 258.7803507167112,269.44632124221494 L 256.9660376988656,271.43925954514077 L 254.82970701027654,273.3217730172302 L 252.36801592372132,275.05099179976014 L 249.58242428618917,276.58150912995904 L 246.47972942396297,277.86581094071306 L 243.07257806002,278.85478901391815 L 239.3799444043287,279.49833921149474 L 235.42756285747703,279.7460451278067 L 231.24830314865292,279.54794618429116 L 226.88247523190748,278.8553877260247 L 222.37805091200826,277.6219490879918 L 217.7907889854523,275.80444388615757 L 213.1842506857238,273.36398496838746 L 208.6296924365741,270.26710454934755 L 204.20582336411323,266.48691807169934 L 199.99841571767982,262.00431830653923 L 196.09975731897217,256.80918415598865 L 192.60793641471895,250.90158658041327 L 189.62595086348512,244.2929720756139 L 187.26063545204596,237.0073022083836 L 185.62140331733792,229.08212592196867 L 184.81879994822145,220.56955968883582 L 184.9628710542247,211.5371491617138 L 186.1613487077778,202.0685848020487 L 188.51766357803876,192.26424309607913 L 192.12879475779607,182.2415244517557 L 197.08297261291435,172.13495875388202 L 203.45725422216003,162.09604988857336 L 211.31499528238157,152.292831378387 L 220.7032467808742,142.90910664069995 L 231.65010922656768,134.143349335121 L 244.16208172014998,126.20724183739546 L 258.2214475586067,119.32383309823723 L 273.7837423329566,113.72530103989808 L 290.7753545035248,109.65030922717668 L 309.09131213303954,107.34095282999408 L 328.5933127268968,107.0392948683257 L 349.1080558703303,108.98350038244331 L 370.42594045878724,113.40358347481728 L 392.30018968326317,120.51679008381839 L 414.44646744875695,130.52264781822873 L 436.543049464479,143.5977231349138 L 458.23161074483704,159.89013549328428 L 479.11868860130295,179.5138877664414 L 498.7778762946604,202.5430820105247 L 516.7527972718066,229.00609955446714 L 532.5609032597329,258.8798341192898 L 545.6981313742726,292.08407614053647 L 555.6444457820209,328.47615546560263 L 561.8702783091612,367.84595793179386 L 563.8438697212862,409.9114387908095 L 561.0394992285633,454.3147623103437 L 552.946574152503,500.61920192483564 L 539.0795347049811,548.306938790793 L 518.9885105890921,596.7778982908924 L 492.27064678001096,645.3497636897423 L 458.5819955619779,693.2593035421967 L 417.64985090026147,739.6651443712447 L 369.2853797663383,783.6521123594304 L 313.3963833991508,824.2372571468625  A 577.7261712296267 577.7261712296267 0 0 1 -215.60586078910427,592.0215071051545 L -215.60586078910427,592.0215071051545 L -152.51359620332533,620.1302253574382 L -90.23752892314133,640.0216020059227 L -29.582819550351303,652.266958699824 L 28.752384654514515,657.4874165476475 L 84.17578590365747,656.3398326417396 L 136.198380234494,649.5036901640954 L 184.43069153316247,637.6690301679517 L 228.577975085345,621.5254890674979 L 268.4345665120816,601.7524833960524 L 303.87754585233523,579.0105626669534 L 334.8598786664613,553.933932305647 L 361.4031866546335,527.1241316919766 L 383.5902897011696,499.1448373988509 L 401.55764974625646,470.5177487451782 L 415.48783471153047,441.7195017759808 L 425.60210810891454,413.1795486937249 L 432.15323716680797,385.2789325226238 L 435.41859951790934,358.34988130311297 L 435.69365589069264,332.6761422823484 L 433.28584399259796,308.4939742709595 L 428.50893700612244,285.99371544935036 L 421.67789895672786,265.32184429461495 L 413.1042587504147,246.5834528232304 L 403.0920149954274,229.84505386516474 L 391.93407487431784,215.1376474619571 L 379.90922235900337,202.45997557735265 L 367.2796039854052,191.78189899075363 L 354.2887142334339,183.04783538312995 L 341.15985728644836,176.18020310109847 L 328.0950575535612,171.08282078418353 L 315.2743877993573,167.64421885821503 L 302.8556810005755,165.7408247387964 L 290.9745900923185,165.239989366968 L 279.7449585253842,166.00282833850602 L 269.2594639745377,167.8868563225999 L 259.5904975546542,170.7483986386236 L 250.79124145503982,174.44476872461127 L 242.89690892814042,178.83620475042216 L 235.92611200340812,183.78756277380637 L 229.88232407725667,189.16976758837083 L 224.75540659436814,194.86102575625506 L 220.5231713250104,200.74780824974147 L 217.1529522013534,206.725612646078 L 214.60316325026236,212.69951693531164 L 212.82482180185218,218.58453872377999 L 211.76301881739693,224.30581496237141 L 211.35832082660062,229.798618318671 L 211.54809055678365,235.00822696862699 L 212.26771584376283,239.88966493175462 L 213.45173880916667,244.4073301412283 L 215.03487954907484,248.53452725481432 L 216.95295068593958,252.25292180342657 L 219.1436610755593,255.55193167029293 L 221.5473087231167,258.4280711242027 L 224.10736454026963,260.88426172331356 L 226.77094996562204,262.9291233888159 L 229.48921267327276,264.5762578463888 L 232.21760561092245,265.84353547235037 L 234.91607544501292,266.7523953835081 L 237.5491671524445,267.32716739591626 L 240.08605199522177,267.59442326705374 L 242.50048645601424,267.58236344532236 L 244.77070991036993,267.3202443951724 L 246.87928887733244,266.8378504584416 L 248.81291563726697,266.1650131635172 L 250.56216884693833,265.33117991255006 L 252.12124353059147,264.3650330701785 L 253.48765749519018,263.29415965022963 L 254.66194082105565,262.1447710531817 L 255.64731462849096,260.94147164874886 L 256.4493648286178,259.70707442531295 L 257.07571604397054,258.46246144034046 L 257.5357103420146,257.22648640149123 L 257.8400948724858,256.01591638397383 L 258.0007219462122,254.84540944210661 L 258.03026454688137,253.72752469756765 L 257.94194973513595,252.67276137846093 L 257.7493118925462,251.68962323665255 L 257.46596726663796,250.78470478007856 L 257.1054108215356,249.96279581594533 L 256.68083597535315,249.22700090388201 L 256.2049774178222,248.5788704591143 L 255.68997685159786,248.01854041865258 L 255.14727118932413,247.54487758253023 L 254.58750246629083,247.1556279617236 L 254.02044849519024,246.84756569925554 L 253.45497309436877,246.61664037618314 L 252.8989945628768,246.45812076511544 L 252.3594709529508,246.36673334641287 L 251.84240060138376,246.33679415251856 L 251.35283632333847,246.36233275060945 L 250.8949116431046,246.4372074100179 L 250.4718774335067,246.5552107261657 L 250.08614735644136,246.71016518499277 L 249.739350538607,246.89600834938062 L 249.4323899761283,247.10686753057442 L 249.1655052367355,247.33712397216794 L 248.93833811577213,247.58146672125034 L 250,250 Z" style="color: rgb(105, 57, 128);" fill="#693980" stroke="currentColor" stroke-width="1"></path>
        <path d="M 250,250 L 248.93833811577213,247.58146672125034 L 249.1655052367355,247.33712397216794 L 249.4323899761283,247.10686753057442 L 249.739350538607,246.89600834938062 L 250.08614735644136,246.71016518499277 L 250.4718774335067,246.5552107261657 L 250.8949116431046,246.4372074100179 L 251.35283632333847,246.36233275060945 L 251.84240060138376,246.33679415251856 L 252.3594709529508,246.36673334641287 L 252.8989945628768,246.45812076511544 L 253.45497309436877,246.61664037618314 L 254.02044849519024,246.84756569925554 L 254.58750246629083,247.1556279617236 L 255.14727118932413,247.54487758253023 L 255.68997685159786,248.01854041865258 L 256.2049774178222,248.5788704591143 L 256.68083597535315,249.22700090388201 L 257.1054108215356,249.96279581594533 L 257.46596726663796,250.78470478007856 L 257.7493118925462,251.68962323665255 L 257.94194973513595,252.67276137846093 L 258.03026454688137,253.72752469756765 L 258.0007219462122,254.84540944210661 L 257.8400948724858,256.01591638397383 L 257.5357103420146,257.22648640149123 L 257.07571604397054,258.46246144034046 L 256.4493648286178,259.70707442531295 L 255.64731462849096,260.94147164874886 L 254.66194082105565,262.1447710531817 L 253.48765749519018,263.29415965022963 L 252.12124353059147,264.3650330701785 L 250.56216884693833,265.33117991255006 L 248.81291563726697,266.1650131635172 L 246.87928887733244,266.8378504584416 L 244.77070991036993,267.3202443951724 L 242.50048645601424,267.58236344532236 L 240.08605199522177,267.59442326705374 L 237.5491671524445,267.32716739591626 L 234.91607544501292,266.7523953835081 L 232.21760561092245,265.84353547235037 L 229.48921267327276,264.5762578463888 L 226.77094996562204,262.9291233888159 L 224.10736454026963,260.88426172331356 L 221.5473087231167,258.4280711242027 L 219.1436610755593,255.55193167029293 L 216.95295068593958,252.25292180342657 L 215.03487954907484,248.53452725481432 L 213.45173880916667,244.4073301412283 L 212.26771584376283,239.88966493175462 L 211.54809055678365,235.00822696862699 L 211.35832082660062,229.798618318671 L 211.76301881739693,224.30581496237141 L 212.82482180185218,218.58453872377999 L 214.60316325026236,212.69951693531164 L 217.1529522013534,206.725612646078 L 220.5231713250104,200.74780824974147 L 224.75540659436814,194.86102575625506 L 229.88232407725667,189.16976758837083 L 235.92611200340812,183.78756277380637 L 242.89690892814042,178.83620475042216 L 250.79124145503982,174.44476872461127 L 259.5904975546542,170.7483986386236 L 269.2594639745377,167.8868563225999 L 279.7449585253842,166.00282833850602 L 290.9745900923185,165.239989366968 L 302.8556810005755,165.7408247387964 L 315.2743877993573,167.64421885821503 L 328.0950575535612,171.08282078418353 L 341.15985728644836,176.18020310109847 L 354.2887142334339,183.04783538312995 L 367.2796039854052,191.78189899075363 L 379.90922235900337,202.45997557735265 L 391.93407487431784,215.1376474619571 L 403.0920149954274,229.84505386516474 L 413.1042587504147,246.5834528232304 L 421.67789895672786,265.32184429461495 L 428.50893700612244,285.99371544935036 L 433.28584399259796,308.4939742709595 L 435.69365589069264,332.6761422823484 L 435.41859951790934,358.34988130311297 L 432.15323716680797,385.2789325226238 L 425.60210810891454,413.1795486937249 L 415.48783471153047,441.7195017759808 L 401.55764974625646,470.5177487451782 L 383.5902897011696,499.1448373988509 L 361.4031866546335,527.1241316919766 L 334.8598786664613,553.933932305647 L 303.87754585233523,579.0105626669534 L 268.4345665120816,601.7524833960524 L 228.577975085345,621.5254890674979 L 184.43069153316247,637.6690301679517 L 136.198380234494,649.5036901640954 L 84.17578590365747,656.3398326417396 L 28.752384654514515,657.4874165476475 L -29.582819550351303,652.266958699824 L -90.23752892314133,640.0216020059227 L -152.51359620332533,620.1302253574382 L -215.60586078910427,592.0215071051545  A 577.7261712296267 577.7261712296267 0 0 1 -279.0022441882552,17.784249958290843 L -279.0022441882552,17.784249958290843 L -271.7989759696635,86.47811299800841 L -257.88737982340325,150.35645763467699 L -238.16481511232894,209.00765515762782 L -213.51826212549696,262.13765285790447 L -184.81272468543511,309.5619343508465 L -152.88115447048682,351.1967513733027 L -118.5158826193412,387.0498282431156 L -82.46152414321881,417.2107267571538 L -45.409303209204325,441.84104460524316 L -7.992732456826559,461.1646047351594 L 29.215432884440872,475.4577768400444 L 65.70505528036026,485.04005555144 L 101.02938644143694,490.26500327956114 L 134.80485247444932,491.5116491907111 L 166.7099584168703,489.1764197654561 L 196.48341950761113,483.66566092728374 L 223.92162642197115,475.38879702933946 L 248.87555005343054,464.752158168199 L 271.24718844193535,452.15349446411994 L 290.98565430933496,437.97718418714095 L 308.0829965473349,422.5901319745334 L 322.5698430863973,406.3383439121719 L 334.510946023518,389.54415795490456 L 344.00070286238775,372.50410103517095 L 351.1587203707931,355.4873382347803 L 356.1254800260467,338.73467453745485 L 359.0581564267985,322.4580658925163 L 360.1266325132839,306.84059354573475 L 359.5097480598807,292.03685376597736 L 357.391810772687,278.17371414348366 L 353.9593925169758,265.3513874798282 L 349.3984267784154,253.64477485022292 L 343.8916174794041,243.10503061308603 L 337.61616376758826,233.7613038867503 L 330.7418003964989,225.62261322652085 L 323.4291488468765,218.67981383657488 L 315.8283704008151,212.9076195628975 L 308.0781089799191,208.26664506158636 L 300.3047086860701,204.70543685183767 L 292.6216886252109,202.16246537998725 L 285.12945573088297,200.56805368064119 L 277.9152349102916,199.8462216693282 L 271.0531948823813,199.91642849008934 L 264.60474753258245,200.6951986287724 L 258.61899843773904,202.0976206520806 L 253.1333263808228,204.0387104130239 L 248.17407014087686,206.43463335028355 L 243.75730157133134,209.20378308246939 L 239.8896649317546,212.26771584376283 L 236.5692635772592,215.5519424152036 L 233.78657640042195,218.98658107052316 L 231.52538782846258,222.5068766756198 L 229.76371667123058,226.05359245879822 L 228.47473066309675,229.5732821102845 L 227.62763511630666,233.0184507826005 L 227.1885256794329,236.34761425885685 L 227.12119674955142,239.52526604662867 L 227.38789860064594,242.52176245512015 L 227.95003774614733,245.3131358383673 L 228.7688164357333,247.88084615370138 L 229.80580848340637,250.21148080959085 L 231.02346982578706,252.29641247754404 L 232.38558330921066,254.13142413620832 L 233.85763819653232,255.71631011911805 L 235.40714576651771,257.05446136719655 L 237.00389314921114,258.15244245893984 L 238.62013820031754,259.0195673201949 L 240.23074876853016,259.66747981564873 L 241.81329015532657,260.10974470856473 L 243.34806491164176,260.36145375581106 L 244.8181093655616,260.4388509925133 L 246.20915143610415,260.3589805642139 L 247.5095343672131,260.1393597924914 L 248.71011102067854,259.79767951963976 L 249.80411330450477,259.3515331750887 L 250.78700119211322,258.81817544549267 L 251.65629561556688,258.2143109154373 L 252.41139930050747,257.55591257912016 L 253.05340935929988,256.85806970677083 L 253.58492517928622,256.13486418374737 L 254.00985484201715,255.3992741251138 L 254.3332229933866,254.66310330329998 L 254.56098275981788,253.93693470975543 L 254.69983397759154,253.23010640138756 L 254.7570496761069,252.55070765659343 L 254.74031243580126,251.90559338106945 L 254.65756193154834,251.30041465720666 L 254.51685467598503,250.739663319442 L 254.32623669720473,250.2267284579533 L 254.0936296239025,249.76396280100536 L 253.82673041015613,249.35275699847818 L 253.53292471289177,248.99361992208 L 253.219213738578,248.68626320797227 L 252.89215420227143,248.42968839164348 L 252.55781089187468,248.22227511964127 L 252.22172120310032,248.0618690651716 L 251.8888709055989,247.94586832177183 L 251.56368031718134,247.87130719865416 L 250,250 Z" style="color: rgb(52, 78, 173);" fill="#344ead" stroke="currentColor" stroke-width="1"></path>
        <path d="M 250,250 L 251.56368031718134,247.87130719865416 L 251.8888709055989,247.94586832177183 L 252.22172120310032,248.0618690651716 L 252.55781089187468,248.22227511964127 L 252.89215420227143,248.42968839164348 L 253.219213738578,248.68626320797227 L 253.53292471289177,248.99361992208 L 253.82673041015613,249.35275699847818 L 254.0936296239025,249.76396280100536 L 254.32623669720473,250.2267284579533 L 254.51685467598503,250.739663319442 L 254.65756193154834,251.30041465720666 L 254.74031243580126,251.90559338106945 L 254.7570496761069,252.55070765659343 L 254.69983397759154,253.23010640138756 L 254.56098275981788,253.93693470975543 L 254.3332229933866,254.66310330329998 L 254.00985484201715,255.3992741251138 L 253.58492517928622,256.13486418374737 L 253.05340935929988,256.85806970677083 L 252.41139930050747,257.55591257912016 L 251.65629561556688,258.2143109154373 L 250.78700119211322,258.81817544549267 L 249.80411330450477,259.3515331750887 L 248.71011102067854,259.79767951963976 L 247.5095343672131,260.1393597924914 L 246.20915143610415,260.3589805642139 L 244.8181093655616,260.4388509925133 L 243.34806491164176,260.36145375581106 L 241.81329015532657,260.10974470856473 L 240.23074876853016,259.66747981564873 L 238.62013820031754,259.0195673201949 L 237.00389314921114,258.15244245893984 L 235.40714576651771,257.05446136719655 L 233.85763819653232,255.71631011911805 L 232.38558330921066,254.13142413620832 L 231.02346982578706,252.29641247754404 L 229.80580848340637,250.21148080959085 L 228.7688164357333,247.88084615370138 L 227.95003774614733,245.3131358383673 L 227.38789860064594,242.52176245512015 L 227.12119674955142,239.52526604662867 L 227.1885256794329,236.34761425885685 L 227.62763511630666,233.0184507826005 L 228.47473066309675,229.5732821102845 L 229.76371667123058,226.05359245879822 L 231.52538782846258,222.5068766756198 L 233.78657640042195,218.98658107052316 L 236.5692635772592,215.5519424152036 L 239.8896649317546,212.26771584376283 L 243.75730157133134,209.20378308246939 L 248.17407014087686,206.43463335028355 L 253.1333263808228,204.0387104130239 L 258.61899843773904,202.0976206520806 L 264.60474753258245,200.6951986287724 L 271.0531948823813,199.91642849008934 L 277.9152349102916,199.8462216693282 L 285.12945573088297,200.56805368064119 L 292.6216886252109,202.16246537998725 L 300.3047086860701,204.70543685183767 L 308.0781089799191,208.26664506158636 L 315.8283704008151,212.9076195628975 L 323.4291488468765,218.67981383657488 L 330.7418003964989,225.62261322652085 L 337.61616376758826,233.7613038867503 L 343.8916174794041,243.10503061308603 L 349.3984267784154,253.64477485022292 L 353.9593925169758,265.3513874798282 L 357.391810772687,278.17371414348366 L 359.5097480598807,292.03685376597736 L 360.1266325132839,306.84059354573475 L 359.0581564267985,322.4580658925163 L 356.1254800260467,338.73467453745485 L 351.1587203707931,355.4873382347803 L 344.00070286238775,372.50410103517095 L 334.510946023518,389.54415795490456 L 322.5698430863973,406.3383439121719 L 308.0829965473349,422.5901319745334 L 290.98565430933496,437.97718418714095 L 271.24718844193535,452.15349446411994 L 248.87555005343054,464.752158168199 L 223.92162642197115,475.38879702933946 L 196.48341950761113,483.66566092728374 L 166.7099584168703,489.1764197654561 L 134.80485247444932,491.5116491907111 L 101.02938644143694,490.26500327956114 L 65.70505528036026,485.04005555144 L 29.215432884440872,475.4577768400444 L -7.992732456826559,461.1646047351594 L -45.409303209204325,441.84104460524316 L -82.46152414321881,417.2107267571538 L -118.5158826193412,387.0498282431156 L -152.88115447048682,351.1967513733027 L -184.81272468543511,309.5619343508465 L -213.51826212549696,262.13765285790447 L -238.16481511232894,209.00765515762782 L -257.88737982340325,150.35645763467699 L -271.7989759696635,86.47811299800841 L -279.0022441882552,17.784249958290843  A 577.7261712296267 577.7261712296267 0 0 1 186.60361660084925,-324.2372571468625 L 186.60361660084925,-324.2372571468625 L 130.71462023366178,-283.65211235943036 L 82.35014909973859,-239.6651443712447 L 41.418004438022166,-193.2593035421968 L 7.729353219989093,-145.3497636897423 L -18.988510589092016,-96.77789829089238 L -39.079534704981086,-48.306938790793026 L -52.94657415250299,-0.6192019248356928 L -61.03949922856316,45.68523768965622 L -63.84386972128624,90.08856120919049 L -61.870278309161165,132.15404206820608 L -55.644445782020796,171.52384453439734 L -45.698131374272634,207.91592385946348 L -32.560903259732925,241.12016588071018 L -16.752797271806628,270.9939004455328 L 1.222123705339584,297.4569179894753 L 20.881311398697022,320.4861122335586 L 41.76838925516296,340.10986450671567 L 63.456950535521,356.40227686508615 L 85.55353255124308,369.4773521817712 L 107.69981031673683,379.4832099161816 L 129.57405954121276,386.5964165251827 L 150.8919441296697,391.01649961755663 L 171.40668727310316,392.96070513167433 L 190.90868786696043,392.6590471700059 L 209.2246454964752,390.3496907728233 L 226.21625766704338,386.2746989601019 L 241.7785524413933,380.67616690176277 L 255.83791827985,373.7927581626045 L 268.3498907734323,365.856650664879 L 279.2967532191257,357.0908933593001 L 288.6850047176184,347.707168621613 L 296.54274577783997,337.90395011142664 L 302.91702738708557,327.86504124611804 L 307.871205242204,317.7584755482443 L 311.4823364219612,307.7357569039209 L 313.83865129222227,297.93141519795125 L 315.0371289457753,288.4628508382863 L 315.18120005177855,279.4304403111642 L 314.3785966826621,270.91787407803133 L 312.73936454795404,262.9926977916164 L 310.3740491365149,255.70702792438613 L 307.39206358528105,249.09841341958673 L 303.9002426810278,243.19081584401138 L 300.00158428232015,237.99568169346074 L 295.79417663588674,233.51308192830066 L 291.3703075634259,229.73289545065248 L 286.8157493142762,226.6360150316126 L 282.2092110145477,224.19555611384243 L 277.62194908799177,222.37805091200823 L 273.1175247680925,221.14461227397533 L 268.7516968513471,220.45205381570887 L 264.572437142523,220.25395487219328 L 260.6200555956713,220.5016607885053 L 256.92742193998004,221.14521098608182 L 253.52027057603703,222.13418905928694 L 250.41757571381086,223.41849087004096 L 247.63198407627868,224.9490082002399 L 245.17029298972346,226.6782269827698 L 243.03396230113444,228.56074045485926 L 241.2196492832888,230.55367875778506 L 239.7197564881846,232.61705754253714 L 238.52298336977282,234.71404903222168 L 237.61487339884073,236.81117974103597 L 236.97834931919988,238.87845966067644 L 236.59423012925075,240.8894482036793 L 236.4417243022728,242.8212625463898 L 236.49889466972607,244.65453425001635 L 236.74309127333999,246.37332016541907 L 237.15134933427092,247.96497365538303 L 237.7007502831508,249.4199821070622 L 238.36874453694386,250.73177656720037 L 239.1334353921336,251.89651912387336 L 239.97382402519847,252.91287339100015 L 240.87001614819275,253.78176313566593 L 241.8033913582926,254.5061237329821 L 242.75673664523183,255.090650747925 L 243.71434588043095,255.54154953697633 L 244.66208740796128,255.86628934246758 L 245.5874420926619,256.0733649266923 L 246.47951435775062,256.172068367802 L 247.329018866664,256.17227322123176 L 248.1282455755644,256.08423284418564 L 248.87100590822,255.91839429110286 L 249.5525627882674,255.68522881885733 L 250.16954720981607,255.39507969486982 L 250.71986394061102,255.0580276818139 L 251.20258883717958,254.68377428102352 L 251.61786011310824,254.28154255432656 L 251.96676574425393,253.85999511154043 L 252.25122902251874,253.42716864848677 L 252.47389408681764,252.99042424786873 L 252.63801306978715,252.5564125120621 L 252.7473363050713,252.13105248180653 L 252.80600684583007,251.7195232066507 L 252.81846035326765,251.32626677026062 L 252.78933122697202,250.95500153459722 L 252.7233656688634,250.60874434960388 L 252.6253422014092,250.28984047740383 L 250,250 Z" style="color: rgb(28, 140, 77);" fill="#1c8c4d" stroke="currentColor" stroke-width="1"></path>
    </g>
</svg>